# xmcd CD database file
# 
# 
# Track frame offsets:
#       150
#       2595
#       28317
#       44150
#       69515
#       87202
#       104990
#       126960
#       149232
#       187637
#       224107
#       233830
#       253365
#       256467
# 
# Disc length: 3423 seconds
# 
# Revision: 0
# Processed by: cddbd v1.4PL0 Copyright (c) Steve Scherf et al.
# 
# Submitted via: MBCDINFO 1.07.3 on 2002-02-26
# 
DISCID=e20d5d0e
DTITLE=The Chicago Dave Blues Band - On Stage!
DYEAR=1994
DGENRE=Blues
TTITLE0=Introduction: I Can't Turn You Loose
TTITLE1=All The Way To Chicago
TTITLE2=If You Love Me Like You Say
TTITLE3=The Sky Is Cryin'
TTITLE4=You Shook Me
TTITLE5=Body Heat
TTITLE6=Pat's Song
TTITLE7=Mustang Sally
TTITLE8=The Thrill Is Gone
TTITLE9=Cold, Cold Feelin'
TTITLE10=Dr. Hammond Goes Funky
TTITLE11=Scuttle Buttin'
TTITLE12=Outroduction: I Can't Turn You Loose
TTITLE13=<End>
EXTD=In Honor Of The 15th Anniversary Of The Band
EXTT0=
EXTT1=
EXTT2=
EXTT3=
EXTT4=
EXTT5=
EXTT6=
EXTT7=
EXTT8=
EXTT9=
EXTT10=
EXTT11=
EXTT12=
EXTT13=
PLAYORDER=
